<?xml version="1.0" encoding="UTF-8"?>
<svg version="1.1" xmlns="http://www.w3.org/2000/svg" width="1024" height="1024">
<path d="M0 0 C337.92 0 675.84 0 1024 0 C1024 337.92 1024 675.84 1024 1024 C686.08 1024 348.16 1024 0 1024 C0 686.08 0 348.16 0 0 Z " fill="#5A5EF3" transform="translate(0,0)"/>
<path d="M0 0 C337.92 0 675.84 0 1024 0 C1024 337.92 1024 675.84 1024 1024 C686.08 1024 348.16 1024 0 1024 C0 686.08 0 348.16 0 0 Z M458.8125 72.5 C453.64515949 73.32129595 448.53930324 74.1108248 443.3125 74.4375 C436.37859228 74.96246462 429.69569925 76.86959631 422.96484375 78.52880859 C419.00261134 79.47899604 415.00462241 80.2522081 411 81 C411 81.66 411 82.32 411 83 C410.34 82.99097656 409.68 82.98195313 409 82.97265625 C396.84326405 83.33672517 385.51793569 87.38506652 374 91 C374 91.66 374 92.32 374 93 C373.01386719 93.07734375 373.01386719 93.07734375 372.0078125 93.15625 C363.29531838 94.19513819 356.14419406 97.33448772 348.296875 101.02734375 C344.27112018 102.91566191 340.1774873 104.48483537 336 106 C333.66558616 106.89301391 331.33217012 107.78864277 329 108.6875 C327.865625 109.12449219 326.73125 109.56148437 325.5625 110.01171875 C324.716875 110.33785156 323.87125 110.66398437 323 111 C323 111.66 323 112.32 323 113 C322.29875 113.103125 321.5975 113.20625 320.875 113.3125 C317.57954861 114.10054272 314.94149219 115.32869762 312 117 C311.67 117.66 311.34 118.32 311 119 C309.33721913 119.66920355 307.64300414 120.26120224 305.9375 120.8125 C300.92164471 122.56084643 296.10260651 124.54393606 292 128 C292 128.66 292 129.32 292 130 C289.36 130.66 286.72 131.32 284 132 C284 132.66 284 133.32 284 134 C283.360625 134.226875 282.72125 134.45375 282.0625 134.6875 C274.22257011 138.04746995 266.57253514 142.55261701 260 148 C260 148.66 260 149.32 260 150 C257.525 150.495 257.525 150.495 255 151 C255 151.66 255 152.32 255 153 C254.278125 153.226875 253.55625 153.45375 252.8125 153.6875 C249.85849701 154.8709564 249.85849701 154.8709564 247.625 157.375 C245 160 245 160 241.79296875 161.77734375 C237.6334805 164.08551166 234.22801326 167.034884 230.6875 170.1875 C224.21418827 175.89290587 224.21418827 175.89290587 222 177 C222 177.66 222 178.32 222 179 C221.443125 179.2475 220.88625 179.495 220.3125 179.75 C217.57589087 181.22924818 215.32349131 182.93467439 213 185 C213 185.66 213 186.32 213 187 C212.01 187.33 211.02 187.66 210 188 C210 188.66 210 189.32 210 190 C209.14305542 190.36907471 209.14305542 190.36907471 208.26879883 190.74560547 C205.62007757 192.21005504 203.83314406 193.9243843 201.69921875 196.0703125 C200.88646484 196.885 200.07371094 197.6996875 199.23632812 198.5390625 C198.39521484 199.39242187 197.55410156 200.24578125 196.6875 201.125 C195.85798828 201.95515625 195.02847656 202.7853125 194.17382812 203.640625 C189.24792975 208.60151397 184.5348396 213.68082631 180 219 C178.93256913 220.23461495 177.8648661 221.46899465 176.796875 222.703125 C175.78082958 223.88505538 174.76520047 225.06734378 173.75 226.25 C173.234375 226.848125 172.71875 227.44625 172.1875 228.0625 C167.2649448 232.96938073 167.2649448 232.96938073 165 239 C164.34 239 163.68 239 163 239 C162.05523454 240.34997449 161.12219487 241.70925578 160.24023438 243.10107422 C158.8498219 245.22993805 157.35508798 247.25203995 155.828125 249.28515625 C143.76632039 263.0304299 143.76632039 263.0304299 137 279 C136.34 279 135.68 279 135 279 C132.92098694 282.46502177 131.1740012 285.45752567 129.9375 289.3125 C129 292 129 292 126 294 C124.56345662 296.42335546 124.56345662 296.42335546 123.25 299.3125 C120.53128158 304.98160709 117.54805118 310.44279827 114.41796875 315.89453125 C112.86177621 319.30272152 112.35876265 322.28657365 112 326 C111.34 326 110.68 326 110 326 C109.34 328.97 108.68 331.94 108 335 C107.34 335 106.68 335 106 335 C104.68373308 338.61973402 104 341.09567131 104 345 C103.34 345 102.68 345 102 345 C99.61020808 349.32438537 98.16680652 353.57717304 96.81640625 358.29296875 C95.97767701 361.07401834 95.01265008 363.77778097 94 366.5 C90.13176737 376.48543459 90.13176737 376.48543459 89 387 C88.34 387 87.68 387 87 387 C86.73445313 388.01320313 86.46890625 389.02640625 86.1953125 390.0703125 C85.83864311 391.42190177 85.48186657 392.77346278 85.125 394.125 C84.95097656 394.79015625 84.77695313 395.4553125 84.59765625 396.140625 C83.78596963 399.20699667 82.93148152 402.19829201 81.89453125 405.19921875 C81.06000848 407.81211318 80.71504614 409.96478245 80.5625 412.6875 C80.25804222 416.24125717 79.68688505 419.45237484 78.6875 422.875 C74.26876843 438.29723961 72.02890794 454.01697602 71 470 C70.95763214 470.64011017 70.91526428 471.28022034 70.87161255 471.93972778 C69.93853252 486.47968788 69.81376988 501.00854884 69.81469727 515.57495117 C69.81248966 519.45567468 69.79419684 523.33612252 69.77539062 527.21679688 C69.77245914 529.72656155 69.77047271 532.23632754 69.76953125 534.74609375 C69.76234573 535.88493515 69.75516022 537.02377655 69.74775696 538.1971283 C69.76676077 544.96488154 70.36287362 551.39290302 71.53398132 558.0606842 C71.99486844 560.96763377 72.22460331 563.81217153 72.375 566.75 C72.83256269 573.43368358 73.83372785 580.00928948 74.875 586.625 C75.11742432 588.19846191 75.11742432 588.19846191 75.36474609 589.80371094 C76.47572057 596.68117201 78.02886448 603.31866154 80 610 C80.66 610 81.32 610 82 610 C82.13792969 610.98226562 82.27585937 611.96453125 82.41796875 612.9765625 C83.01213279 617.11594001 83.63592389 621.24825955 84.3125 625.375 C84.41755859 626.07882812 84.52261719 626.78265625 84.63085938 627.5078125 C85.43337824 632.31415499 86.93889944 636.2632825 89.00805664 640.66113281 C90.7199707 644.69759274 91.6032945 648.92113481 92.5625 653.1875 C93.85549446 658.90142602 95.25898443 663.78300345 98 669 C99.36094471 672.56425279 100.54274073 676.19191298 101.75 679.81054688 C103.12258693 683.82464876 104.47523605 687.53531034 107 691 C107.66 691 108.32 691 109 691 C109.12375 691.886875 109.2475 692.77375 109.375 693.6875 C109.94412736 696.70387502 110.76614436 699.20326054 112 702 C112.66 702 113.32 702 114 702 C114.144375 702.763125 114.28875 703.52625 114.4375 704.3125 C114.9632594 707.08172908 114.9632594 707.08172908 116 710 C116.66 710 117.32 710 118 710 C118.144375 710.763125 118.28875 711.52625 118.4375 712.3125 C118.9632594 715.08172908 118.9632594 715.08172908 120 718 C120.66 718 121.32 718 122 718 C122.10957031 718.71800781 122.21914062 719.43601562 122.33203125 720.17578125 C123.0533258 723.22546521 124.15284434 725.46056593 125.6875 728.1875 C126.49380859 729.62416016 126.49380859 729.62416016 127.31640625 731.08984375 C129.37546191 734.64900028 131.47573314 738.18041827 133.609375 741.6953125 C135.46235819 744.76626779 137.23521392 747.87768616 139 751 C139.66 751 140.32 751 141 751 C141.2371875 751.67417969 141.474375 752.34835937 141.71875 753.04296875 C143.31027846 756.71609999 145.33514083 759.95454752 147.5 763.3125 C147.90347656 763.95767578 148.30695313 764.60285156 148.72265625 765.26757812 C149.75845742 766.88281262 150.87340548 768.44672883 152 770 C152.66 770 153.32 770 154 770 C155.20628008 772.33214148 156.1654738 774.49642139 157 777 C158.65374178 778.67949209 160.32261555 780.34412048 162 782 C163.66168368 784.08645491 165.2822174 786.17577128 166.875 788.3125 C170.28549094 792.82839011 173.81111607 797.14454426 177.60546875 801.34765625 C179 803 179 803 180.75 805.9375 C181.89184215 808.32361989 181.89184215 808.32361989 185 809 C186.52011626 810.69660916 187.97015146 812.45678036 189.375 814.25 C193.03779139 818.90715744 196.7232184 823.24862954 201.4375 826.875 C203.556554 828.63226429 205.08214847 830.21269503 206.8125 832.3125 C209.5483317 835.5913212 212.52084795 838.33531262 215.77734375 841.08984375 C219.21600978 844.0450418 222.49802758 847.17161463 225.80078125 850.27734375 C227.92802247 852.30832377 227.92802247 852.30832377 231 852 C231.33 852.99 231.66 853.98 232 855 C234.19195419 856.92775839 236.37809162 858.72498072 238.6875 860.5 C239.60692383 861.22896484 239.60692383 861.22896484 240.54492188 861.97265625 C246.65665458 866.99403931 246.65665458 866.99403931 254 869 C254 869.99 254 870.98 254 872 C258.04843197 875.22564954 258.04843197 875.22564954 263 876 C263 876.66 263 877.32 263 878 C265.56218438 880.05678352 265.56218438 880.05678352 268.75 882.125 C269.81734375 882.84945312 270.8846875 883.57390625 271.984375 884.3203125 C275.00710514 886.32440231 275.00710514 886.32440231 279 886 C279 886.66 279 887.32 279 888 C279.66 888 280.32 888 281 888 C281 888.66 281 889.32 281 890 C282.093125 890.474375 283.18625 890.94875 284.3125 891.4375 C284.92738281 891.70433594 285.54226563 891.97117187 286.17578125 892.24609375 C287.75711021 892.89961942 289.37675406 893.45891802 291 894 C291 894.66 291 895.32 291 896 C293.97 896.66 296.94 897.32 300 898 C300 898.66 300 899.32 300 900 C302.31 900.66 304.62 901.32 307 902 C307 902.66 307 903.32 307 904 C308.4562545 904.67119549 309.91507867 905.33681807 311.375 906 C312.18710937 906.37125 312.99921875 906.7425 313.8359375 907.125 C315.91998433 908.12495013 315.91998433 908.12495013 318 908 C318.33 908.99 318.66 909.98 319 911 C320.76002966 912.02102524 320.76002966 912.02102524 322.875 912.6875 C323.92300781 913.06455078 323.92300781 913.06455078 324.9921875 913.44921875 C327.13518866 914.13227296 327.13518866 914.13227296 330 914 C330 914.66 330 915.32 330 916 C332.0829243 916.64715133 334.16635539 917.29267166 336.25 917.9375 C337.99023438 918.47697266 337.99023438 918.47697266 339.765625 919.02734375 C342.17089058 919.75066637 344.55654044 920.42542411 347 921 C347 921.66 347 922.32 347 923 C360.17400188 928.57191826 360.17400188 928.57191826 374 931 C374 931.66 374 932.32 374 933 C374.99 933.25394531 375.98 933.50789062 377 933.76953125 C389.01072128 936.88832891 389.01072128 936.88832891 392.9375 938.5 C409.32094766 944.88092172 429.49775998 948.30711416 447 948 C447 948.66 447 949.32 447 950 C468.79692236 952.73361591 490.1147834 954.07467231 512.0625 954.125 C513.28522614 954.12915421 513.28522614 954.12915421 514.53265381 954.13339233 C516.86686837 954.13919122 519.2009414 954.13739919 521.53515625 954.1328125 C522.59786995 954.13576576 522.59786995 954.13576576 523.68205261 954.13877869 C526.73416436 954.12438646 529.07988508 953.97337164 532 953 C533.53489599 952.87537843 535.07399469 952.79899631 536.61328125 952.75390625 C537.5244873 952.72232422 538.43569336 952.69074219 539.37451172 952.65820312 C540.34404785 952.62662109 541.31358398 952.59503906 542.3125 952.5625 C549.89903999 952.27264676 557.20720449 951.68565379 564.69921875 950.453125 C568.21455731 949.97054598 571.64154091 949.85396529 575.1875 949.75 C591.66621889 949.04533839 608.26436865 944.07565561 623.953125 939.21484375 C628.51087054 937.81341605 633.12851641 936.66960381 637.75 935.5 C644.32252383 933.81916216 650.55180727 931.76530787 656.84375 929.203125 C662.44251155 927.06894362 668.21642225 925.55211457 674 924 C674 923.34 674 922.68 674 922 C674.59167969 921.87882813 675.18335938 921.75765625 675.79296875 921.6328125 C680.03803585 920.73255357 684.02439661 919.79543379 688 918 C688 917.34 688 916.68 688 916 C688.54527344 915.90203125 689.09054687 915.8040625 689.65234375 915.703125 C697.75931445 914.09558893 704.67710595 910.75533028 712 907 C712 906.34 712 905.68 712 905 C712.53109375 904.89816406 713.0621875 904.79632812 713.609375 904.69140625 C716.7021784 903.79691899 719.38451568 902.40138873 722.25 900.9375 C723.86648438 900.11572266 723.86648438 900.11572266 725.515625 899.27734375 C726.33546875 898.85582031 727.1553125 898.43429687 728 898 C728 897.34 728 896.68 728 896 C729.051875 895.8453125 729.051875 895.8453125 730.125 895.6875 C733.42045139 894.89945728 736.05850781 893.67130238 739 892 C739.33 891.34 739.66 890.68 740 890 C741.8203125 888.81640625 741.8203125 888.81640625 744.125 887.5625 C744.93324219 887.12164063 745.74148438 886.68078125 746.57421875 886.2265625 C748.67195485 885.16587146 750.74555653 884.27736044 752.9375 883.4375 C756.34593585 881.83762195 756.50298334 881.20789285 758 878 C758.763125 877.855625 759.52625 877.71125 760.3125 877.5625 C764.00871756 876.78887307 765.40068068 874.6643023 768 872 C769.66666667 871.33333333 771.33333333 870.66666667 773 870 C773.763125 869.236875 774.52625 868.47375 775.3125 867.6875 C778.02831001 864.97168999 780.62203972 863.27788081 783.9375 861.40625 C786.63015255 859.57035053 788.71133494 857.31895621 791 855 C793.13133184 853.10386396 795.31691723 851.27361488 797.5 849.4375 C802.44406492 845.23988291 807.3006449 840.96597302 812.0625 836.5625 C812.58585938 836.079021 813.10921875 835.59554199 813.6484375 835.09741211 C816.05008634 832.86370803 818.39591299 830.59720157 820.6953125 828.2578125 C822.9789829 826.02058964 825.27626533 824.6342408 828 823 C828 822.34 828 821.68 828 821 C828.61875 820.79375 829.2375 820.5875 829.875 820.375 C832.31985677 819.10931359 832.31985677 819.10931359 833 815.9375 C833.33 814.968125 833.66 813.99875 834 813 C834.62003906 812.85304688 835.24007812 812.70609375 835.87890625 812.5546875 C838.71627507 811.81268681 839.32740427 810.59149335 840.9375 808.1875 C842.81679485 805.50688146 844.18798609 803.8537886 846.8125 801.8125 C849.23385203 800.14914641 849.23385203 800.14914641 849.8125 797.25 C849.9053125 796.13625 849.9053125 796.13625 850 795 C850.66 795 851.32 795 852 795 C852 794.34 852 793.68 852 793 C852.99 793 853.98 793 855 793 C855.33 791.68 855.66 790.36 856 789 C856.66 789 857.32 789 858 789 C858.66 787.35 859.32 785.7 860 784 C860.66 784 861.32 784 862 784 C862 783.01 862 782.02 862 781 C862.99 780.67 863.98 780.34 865 780 C866.03997918 778.02049418 867.03177864 776.0155762 868 774 C869.57814347 771.56017924 871.28524314 769.22018217 873 766.875 C873.43828125 766.26785156 873.8765625 765.66070313 874.328125 765.03515625 C876.12099414 762.55646066 877.92113535 760.10028048 879.8125 757.6953125 C881.19123855 756.07195527 881.19123855 756.07195527 881 754 C881.99 754 882.98 754 884 754 C884.24234375 753.49210938 884.4846875 752.98421875 884.734375 752.4609375 C886.34857661 749.14561573 887.93729889 746.08930159 890.0625 743.0625 C892.48807202 739.22853132 893.7297373 735.33044101 895 731 C895.66 731 896.32 731 897 731 C897.66 728.36 898.32 725.72 899 723 C899.66 723 900.32 723 901 723 C901 722.34 901 721.68 901 721 C901.66 721 902.32 721 903 721 C904.485 715.555 904.485 715.555 906 710 C906.66 710 907.32 710 908 710 C908.6708712 708.3767313 909.33657029 706.75132422 910 705.125 C910.37125 704.22007812 910.7425 703.31515625 911.125 702.3828125 C912.11490226 700.11016142 912.11490226 700.11016142 912 698 C912.66 698 913.32 698 914 698 C917.13632381 692.20986374 919.46430004 686.22920213 921.71508789 680.05419922 C923.15605468 676.13647174 924.71900825 672.37575208 926.5625 668.625 C929.46449969 662.46641546 931.07233216 655.99241501 932.7890625 649.4296875 C933.57037166 646.47782307 934.4481304 643.58919501 935.43359375 640.69921875 C940.57493288 625.55647055 944.36548338 609.99977782 946.66967773 594.18139648 C947.36624262 589.45533073 948.23945674 584.94783595 949.5703125 580.35546875 C950.92729386 575.59715102 951.49546224 571.18168756 951.625 566.25 C951.67680063 564.83843277 951.73145669 563.42696724 951.7890625 562.015625 C951.80662598 561.41008789 951.82418945 560.80455078 951.84228516 560.18066406 C952 558 952 558 952.50177002 554.84544373 C953.00400286 550.96910509 953.14101478 547.19126187 953.12939453 543.29223633 C953.13114685 542.55636795 953.13289917 541.82049957 953.13470459 541.06233215 C953.13907326 538.65220722 953.13620371 536.24215681 953.1328125 533.83203125 C953.13348675 532.1476795 953.1344578 530.46332785 953.13571167 528.77897644 C953.1371817 525.2596239 953.13505565 521.74029683 953.13037109 518.22094727 C953.12466103 513.7117273 953.12796528 509.2025667 953.13394356 504.69334888 C953.1375567 501.21981865 953.13640734 497.7463025 953.13381577 494.27277184 C953.13314927 492.609799 953.13396524 490.94682487 953.13629532 489.28385353 C953.13883562 486.96239452 953.13496237 484.64103191 953.12939453 482.31958008 C953.13141876 481.63430237 953.13344299 480.94902466 953.13552856 480.24298096 C953.12110059 476.99465237 952.91332758 474.11679865 952 471 C951.72826306 468.48572197 951.48907784 465.98039366 951.28125 463.4609375 C951.15237318 461.97916411 951.02346603 460.49739335 950.89453125 459.015625 C950.69590184 456.68727432 950.49863489 454.35881416 950.30224609 452.03027344 C950.11113208 449.77768888 949.91514872 447.52556647 949.71875 445.2734375 C949.6327655 444.22499161 949.6327655 444.22499161 949.54504395 443.15536499 C949.25172784 439.45563967 949.25172784 439.45563967 948 436 C947.68954474 433.40856095 947.49026088 430.81628268 947.28125 428.21484375 C947.2334259 426.02929332 947.2334259 426.02929332 946 425 C945.57501661 422.73444109 945.1866705 420.46200313 944.8125 418.1875 C943.34393778 409.77251282 940.9524652 401.73550534 938.40234375 393.59375 C937.46628527 390.60494821 936.63723181 387.6195727 935.90625 384.57421875 C935.16501025 381.04951849 935.16501025 381.04951849 933.5625 378.3125 C931.52024742 373.98292453 930.7007102 369.60178387 929.74609375 364.92578125 C929.13065678 361.83642651 929.13065678 361.83642651 927 359 C926.61500109 357.34450469 926.27206865 355.6777567 926 354 C925.34 354 924.68 354 924 354 C923.7525 352.72125 923.505 351.4425 923.25 350.125 C921.76057837 343.39068648 919.13961126 337.12504518 916 331 C915.34 331 914.68 331 914 331 C913.87625 330.0409375 913.87625 330.0409375 913.75 329.0625 C912.89253517 325.56118527 911.54044318 322.52911196 910.0390625 319.26171875 C909.15492556 317.33722519 908.3218543 315.38940397 907.5 313.4375 C905.80149624 309.54509556 903.92558806 305.78477652 902 302 C901.34 302 900.68 302 900 302 C899.8453125 300.948125 899.8453125 300.948125 899.6875 299.875 C898.90640997 296.60862353 897.57941257 293.9528148 896 291 C895.34 291 894.68 291 894 291 C893.67 289.35 893.34 287.7 893 286 C892.34 286 891.68 286 891 286 C890.58621094 284.92685547 890.58621094 284.92685547 890.1640625 283.83203125 C889.01751478 281.04261145 887.73772885 278.37709642 886.375 275.6875 C885.92898438 274.80449219 885.48296875 273.92148437 885.0234375 273.01171875 C884.68570313 272.34785156 884.34796875 271.68398438 884 271 C883.34 271 882.68 271 882 271 C882 270.34 882 269.68 882 269 C881.34 269 880.68 269 880 269 C879.71125 268.0925 879.4225 267.185 879.125 266.25 C878.23468224 263.67797092 877.28505587 261.38653234 876 259 C875.34 259 874.68 259 874 259 C873.72929688 258.41992188 873.45859375 257.83984375 873.1796875 257.2421875 C871.99909947 254.9982884 870.67650689 253.12668506 869.125 251.125 C867.2309738 248.66552422 865.485531 246.21476336 863.875 243.5625 C862.25562349 240.86709235 862.25562349 240.86709235 859.75 240.125 C859.1725 240.08375 858.595 240.0425 858 240 C857.9278125 239.11699219 857.855625 238.23398438 857.78125 237.32421875 C856.83468537 233.29658623 855.37833271 231.74857704 852.5 228.8125 C849.06324409 225.27242389 845.900509 221.66397849 842.81640625 217.80859375 C838.0360353 211.91797841 832.8348268 206.57306959 827.4375 201.25 C826.54353516 200.35667969 825.64957031 199.46335938 824.72851562 198.54296875 C818.58611556 192.44100877 812.26545815 186.66428317 805.5625 181.1875 C803 179 803 179 802 177 C801.319375 176.608125 800.63875 176.21625 799.9375 175.8125 C797.43345631 174.26745177 795.54019607 172.76873464 793.375 170.8125 C788.52627999 166.48231102 783.29222448 162.76479384 778 159 C776.01820811 157.58700812 774.03897161 156.17042427 772.0625 154.75 C770.74958984 153.81414062 770.74958984 153.81414062 769.41015625 152.859375 C767 151 767 151 764.88671875 148.84375 C762.49109369 146.50268369 760.19384973 145.87104993 757 145 C757 144.34 757 143.68 757 143 C756.01 143 755.02 143 754 143 C754 142.34 754 141.68 754 141 C749.94627896 138.22030558 745.970558 136 741 136 C741 135.34 741 134.68 741 134 C740.34 134 739.68 134 739 134 C739 133.34 739 132.68 739 132 C733.5853446 128.02925271 726.52585054 125.47698234 720 124 C720 123.34 720 122.68 720 122 C719.01 122 718.02 122 717 122 C717 121.34 717 120.68 717 120 C715.37750059 119.16180842 713.75191503 118.3295884 712.125 117.5 C711.22007812 117.0359375 710.31515625 116.571875 709.3828125 116.09375 C707.13403141 114.86094411 707.13403141 114.86094411 705 115 C705 114.34 705 113.68 705 113 C701.04 112.505 701.04 112.505 697 112 C697 111.34 697 110.68 697 110 C694.70967689 109.16280617 692.41789043 108.3301071 690.125 107.5 C689.14853516 107.14228516 689.14853516 107.14228516 688.15234375 106.77734375 C684.66542411 105.45122467 684.66542411 105.45122467 681 105 C681 104.34 681 103.68 681 103 C678.29120665 101.64560332 675.99066732 101.93498549 673 102 C673 101.34 673 100.68 673 100 C672.00097656 99.65066406 671.00195312 99.30132812 669.97265625 98.94140625 C668.66921795 98.48192081 667.3658354 98.02227721 666.0625 97.5625 C665.40314453 97.33240234 664.74378906 97.10230469 664.06445312 96.86523438 C659.11328125 95.11328125 659.11328125 95.11328125 658 94 C656.78828125 93.7421875 655.5765625 93.484375 654.328125 93.21875 C646.38871472 91.52417231 638.71910242 88.79814948 631.01171875 86.27734375 C623.92364948 84.01899991 617.08516406 82.34089365 609.69750977 81.41967773 C607.30637254 81.04766535 605.39607399 80.51674182 603.1875 79.5625 C596.83046515 76.90702975 589.76309293 76.13022934 583 75 C581.89011719 74.814375 580.78023437 74.62875 579.63671875 74.4375 C576.42826763 73.9260657 573.21719892 73.45312661 570 73 C568.75734375 72.8246875 567.5146875 72.649375 566.234375 72.46875 C548.64688419 70.07725405 531.13851388 69.83819402 513.4152832 69.86962891 C509.80871407 69.87500564 506.20226858 69.86964419 502.59570312 69.86328125 C487.84175399 69.85794002 473.40138804 70.09393656 458.8125 72.5 Z " fill="#FEFEFE" transform="translate(0,0)"/>
<path d="M0 0 C22.11 0 44.22 0 67 0 C67 95.37 67 190.74 67 289 C131.61724878 293.23176471 131.61724878 293.23176471 193.80859375 283.7265625 C199.37863253 281.87981168 205.21109113 280.89060137 211 280 C211 279.34 211 278.68 211 278 C212.54166667 277.22916667 214.08333333 276.45833333 215.625 275.6875 C216.54410156 275.2234375 217.46320313 274.759375 218.41015625 274.28125 C220.26822435 273.36202476 222.15709836 272.5041007 224.0625 271.6875 C227.87933826 269.49484823 230.85456911 266.65767712 234.046875 263.64453125 C236 262 236 262 238 262 C238 261.34 238 260.68 238 260 C238.928125 259.9071875 238.928125 259.9071875 239.875 259.8125 C242.27761141 259.171081 242.27761141 259.171081 243.25 256.4375 C243.62125 255.2309375 243.62125 255.2309375 244 254 C244.66 254 245.32 254 246 254 C246 253.34 246 252.68 246 252 C247.6436814 250.31066078 249.3142876 248.64740076 251 247 C253.35360398 244.25412869 254.85423387 242.43729839 256 239 C256.66 239 257.32 239 258 239 C258.268125 238.27039063 258.53625 237.54078125 258.8125 236.7890625 C259.97701248 234.05399043 261.31966943 231.81988097 263 229.375 C263.515625 228.61960937 264.03125 227.86421875 264.5625 227.0859375 C265.2740625 226.05339844 265.2740625 226.05339844 266 225 C268.18975773 221.71536341 268.99806563 218.79303725 270 215 C270.66 215 271.32 215 272 215 C272.66 217.31 273.32 219.62 274 222 C274.66 222 275.32 222 276 222 C276 223.65 276 225.3 276 227 C276.66 227 277.32 227 278 227 C278.38671875 227.81984375 278.7734375 228.6396875 279.171875 229.484375 C279.69265625 230.56203125 280.2134375 231.6396875 280.75 232.75 C281.26046875 233.81734375 281.7709375 234.8846875 282.296875 235.984375 C283.93852897 238.8911568 285.60542766 240.71782596 288 243 C288.95695889 244.75442463 289.91348055 246.50911658 290.859375 248.26953125 C292.09478372 250.14379859 293.35223423 251.26100303 295.125 252.625 C298.13574115 255.11213399 298.63772995 256.49701988 300 260 C302.04105639 260.88693303 302.04105639 260.88693303 304 261 C304 261.66 304 262.32 304 263 C304.86625 263.226875 305.7325 263.45375 306.625 263.6875 C310.72414732 265.28161285 312.89286264 266.89286264 316 270 C316 271.32 316 272.64 316 274 C315.01 274.66 314.02 275.32 313 276 C312.27617533 278.05925139 312.27617533 278.05925139 312 280 C311.34 280 310.68 280 310 280 C309.75765625 280.72445313 309.5153125 281.44890625 309.265625 282.1953125 C307.83548179 285.36458047 306.12605443 287.34539103 303.75 289.875 C300.93671004 292.90121207 298.18845243 295.93495409 295.5625 299.125 C294.716875 300.07375 293.87125 301.0225 293 302 C292.34 302 291.68 302 291 302 C290.7525 302.61875 290.505 303.2375 290.25 303.875 C288.79371361 306.35068687 287.62187494 306.95125002 285 308 C285 308.66 285 309.32 285 310 C281.99058578 313.35334727 279.04029722 315.97985139 275 318 C274.01 318 273.02 318 272 318 C272 318.66 272 319.32 272 320 C270.35 320.66 268.7 321.32 267 322 C267 322.66 267 323.32 267 324 C265.35 324.33 263.7 324.66 262 325 C262 325.66 262 326.32 262 327 C259.48046875 328.7265625 259.48046875 328.7265625 256.1875 330.625 C254.56908203 331.57246094 254.56908203 331.57246094 252.91796875 332.5390625 C250 334 250 334 247 334 C247 334.66 247 335.32 247 336 C241.4373852 338.66038099 236.06732052 339.96232949 230 341 C230 341.66 230 342.32 230 343 C222.07732935 345.54025182 214.14200156 348.02260018 206.125 350.25 C204.99320313 350.56453125 203.86140625 350.8790625 202.6953125 351.203125 C192.09297271 353.48946466 181.30331314 353.13642811 170.51513672 353.11352539 C168.62159286 353.11321868 166.72804889 353.11335319 164.83450508 353.11389065 C159.78594621 353.11411544 154.73741128 353.10833999 149.68885803 353.10128021 C144.9430433 353.0955648 140.19723425 353.09531598 135.45141602 353.09460449 C121.59260753 353.08936728 107.73380346 353.07540604 93.875 353.0625 C62.89625 353.041875 31.9175 353.02125 0 353 C0 236.51 0 120.02 0 0 Z " fill="#FCFDFE" transform="translate(266,331)"/>
<path d="M0 0 C0.78667557 0.00045822 1.57335114 0.00091644 2.38386536 0.00138855 C4.04376743 0.00439824 5.703667 0.01224594 7.36352539 0.0246582 C9.86940848 0.042787 12.37491782 0.04516835 14.88085938 0.04492188 C28.1109099 0.07120042 40.28199857 1.13661969 53.20703125 4.16796875 C55.50863312 4.70000383 57.81071269 5.22997682 60.11328125 5.7578125 C61.21671875 6.01143555 62.32015625 6.26505859 63.45703125 6.52636719 C67.4458 7.39052051 71.4514272 8.08214414 75.48242188 8.7175293 C78.7444579 9.46967347 80.99475589 11.30927371 83.70703125 13.23046875 C87.32453111 14.71172914 91.0006089 15.99059793 94.70703125 17.23046875 C94.70703125 17.89046875 94.70703125 18.55046875 94.70703125 19.23046875 C95.69703125 19.23046875 96.68703125 19.23046875 97.70703125 19.23046875 C97.70703125 19.89046875 97.70703125 20.55046875 97.70703125 21.23046875 C99.01027344 21.37162109 99.01027344 21.37162109 100.33984375 21.515625 C104.06181247 22.30578773 106.40634427 23.59817818 109.58203125 25.66796875 C110.54882812 26.28542969 111.515625 26.90289062 112.51171875 27.5390625 C113.23617188 28.09722656 113.960625 28.65539062 114.70703125 29.23046875 C114.70703125 29.89046875 114.70703125 30.55046875 114.70703125 31.23046875 C115.36703125 31.27171875 116.02703125 31.31296875 116.70703125 31.35546875 C123.27901939 33.27229862 127.97951914 38.50295664 132.70703125 43.23046875 C133.57328125 43.74609375 134.43953125 44.26171875 135.33203125 44.79296875 C137.94166655 46.37248486 139.2794032 47.53383798 140.70703125 50.23046875 C140.39453125 52.98046875 140.39453125 52.98046875 139.70703125 55.23046875 C139.04703125 55.23046875 138.38703125 55.23046875 137.70703125 55.23046875 C137.45179688 55.81570313 137.1965625 56.4009375 136.93359375 57.00390625 C135.58508132 59.45184282 134.11815675 60.94913611 132.08203125 62.85546875 C128.08584175 66.72039656 124.72044763 70.89399768 121.37109375 75.32421875 C120.54738281 76.2678125 120.54738281 76.2678125 119.70703125 77.23046875 C119.04703125 77.23046875 118.38703125 77.23046875 117.70703125 77.23046875 C117.70703125 77.89046875 117.70703125 78.55046875 117.70703125 79.23046875 C117.04703125 79.23046875 116.38703125 79.23046875 115.70703125 79.23046875 C115.44921875 79.8028125 115.19140625 80.37515625 114.92578125 80.96484375 C113.59337183 83.4417587 112.05647007 85.36458535 110.20703125 87.48046875 C109.59859375 88.186875 108.99015625 88.89328125 108.36328125 89.62109375 C106.70703125 91.23046875 106.70703125 91.23046875 104.70703125 91.23046875 C104.45179688 91.8234375 104.1965625 92.41640625 103.93359375 93.02734375 C102.58886627 95.44271413 101.21488758 96.74258581 99.08203125 98.48046875 C98.45039062 99.00125 97.81875 99.52203125 97.16796875 100.05859375 C96.68585938 100.4453125 96.20375 100.83203125 95.70703125 101.23046875 C91.35258786 98.81133353 87.67539844 95.87559409 83.89453125 92.66796875 C83.29705078 92.17361328 82.69957031 91.67925781 82.08398438 91.16992188 C80.58435913 89.90338124 79.14041804 88.57151437 77.70703125 87.23046875 C77.70703125 86.57046875 77.70703125 85.91046875 77.70703125 85.23046875 C76.73765625 85.00359375 75.76828125 84.77671875 74.76953125 84.54296875 C69.2866824 82.98762999 63.75282679 80.27626429 59.70703125 76.23046875 C57.71881812 75.83282612 55.71758786 75.49271526 53.70703125 75.23046875 C53.70703125 74.57046875 53.70703125 73.91046875 53.70703125 73.23046875 C50.40703125 72.24046875 47.10703125 71.25046875 43.70703125 70.23046875 C43.70703125 69.57046875 43.70703125 68.91046875 43.70703125 68.23046875 C42.51078125 68.25109375 41.31453125 68.27171875 40.08203125 68.29296875 C37.60431138 68.33568806 35.42527142 68.17976206 32.97753906 67.73925781 C10.50816402 64.24372351 -13.70838396 66.86280201 -34.10546875 76.83984375 C-37.29296875 78.23046875 -37.29296875 78.23046875 -41.29296875 78.23046875 C-41.29296875 78.89046875 -41.29296875 79.55046875 -41.29296875 80.23046875 C-42.34097656 80.73707031 -42.34097656 80.73707031 -43.41015625 81.25390625 C-44.32023438 81.69992187 -45.2303125 82.1459375 -46.16796875 82.60546875 C-47.07289063 83.04632813 -47.9778125 83.4871875 -48.91015625 83.94140625 C-51.38831347 85.13549574 -51.38831347 85.13549574 -53.29296875 87.23046875 C-54.28296875 87.23046875 -55.27296875 87.23046875 -56.29296875 87.23046875 C-56.29296875 87.89046875 -56.29296875 88.55046875 -56.29296875 89.23046875 C-57.99199898 90.74787851 -59.75369598 92.19559675 -61.54296875 93.60546875 C-68.18802062 98.44471467 -68.18802062 98.44471467 -72.29296875 105.23046875 C-73.28296875 105.23046875 -74.27296875 105.23046875 -75.29296875 105.23046875 C-75.51984375 105.74609375 -75.74671875 106.26171875 -75.98046875 106.79296875 C-77.13012723 108.92804878 -78.35546868 110.72585951 -79.79296875 112.66796875 C-81.79500569 115.4082199 -83.21168572 117.98661967 -84.29296875 121.23046875 C-84.95296875 121.23046875 -85.61296875 121.23046875 -86.29296875 121.23046875 C-86.29296875 121.89046875 -86.29296875 122.55046875 -86.29296875 123.23046875 C-86.95296875 123.23046875 -87.61296875 123.23046875 -88.29296875 123.23046875 C-88.36644531 124.15279297 -88.36644531 124.15279297 -88.44140625 125.09375 C-88.51617188 125.90199219 -88.5909375 126.71023438 -88.66796875 127.54296875 C-88.73757813 128.34347656 -88.8071875 129.14398438 -88.87890625 129.96875 C-89.29296875 132.23046875 -89.29296875 132.23046875 -91.29296875 135.23046875 C-91.9894086 137.22029688 -92.64784475 139.22341632 -93.29296875 141.23046875 C-94.60843979 144.90366865 -95.95019417 148.5671711 -97.29296875 152.23046875 C-97.95296875 152.23046875 -98.61296875 152.23046875 -99.29296875 152.23046875 C-99.83645971 156.899765 -100.33510196 161.55838033 -100.6875 166.24609375 C-101.4829045 176.4713424 -102.71599461 185.56852711 -106.29296875 195.23046875 C-106.8810667 196.99972545 -107.46490078 198.77040961 -108.04296875 200.54296875 C-108.45546875 201.75984375 -108.86796875 202.97671875 -109.29296875 204.23046875 C-109.95296875 204.23046875 -110.61296875 204.23046875 -111.29296875 204.23046875 C-111.42574219 204.85695313 -111.55851563 205.4834375 -111.6953125 206.12890625 C-111.87191406 206.94617188 -112.04851563 207.7634375 -112.23046875 208.60546875 C-112.40449219 209.41757812 -112.57851563 210.2296875 -112.7578125 211.06640625 C-113.29296875 213.23046875 -113.29296875 213.23046875 -114.29296875 215.23046875 C-114.95296875 215.23046875 -115.61296875 215.23046875 -116.29296875 215.23046875 C-116.49921875 216.03484375 -116.70546875 216.83921875 -116.91796875 217.66796875 C-118.42301823 221.56741513 -120.40984725 224.57575981 -122.78125 227.9921875 C-124.10216008 229.94795359 -125.24563175 231.9012231 -126.35546875 233.98046875 C-128.33379042 237.29894381 -130.50126357 239.58569542 -133.29296875 242.23046875 C-133.95296875 243.22046875 -134.61296875 244.21046875 -135.29296875 245.23046875 C-135.95296875 245.23046875 -136.61296875 245.23046875 -137.29296875 245.23046875 C-137.29296875 245.89046875 -137.29296875 246.55046875 -137.29296875 247.23046875 C-139.3046875 249.2109375 -139.3046875 249.2109375 -141.98046875 251.41796875 C-142.85058594 252.15402344 -143.72070312 252.89007812 -144.6171875 253.6484375 C-147.29296875 255.23046875 -147.29296875 255.23046875 -150.125 254.96875 C-150.84042969 254.72511719 -151.55585938 254.48148438 -152.29296875 254.23046875 C-152.95296875 251.92046875 -153.61296875 249.61046875 -154.29296875 247.23046875 C-154.95296875 247.23046875 -155.61296875 247.23046875 -156.29296875 247.23046875 C-156.79989567 245.64933955 -157.29823318 244.06545492 -157.79296875 242.48046875 C-158.210625 241.15789062 -158.210625 241.15789062 -158.63671875 239.80859375 C-159.29296875 237.23046875 -159.29296875 237.23046875 -159.29296875 233.23046875 C-159.95296875 233.23046875 -160.61296875 233.23046875 -161.29296875 233.23046875 C-161.58300781 231.76287109 -161.58300781 231.76287109 -161.87890625 230.265625 C-162.14182648 228.94138627 -162.40485456 227.61716895 -162.66796875 226.29296875 C-162.80372314 225.60654297 -162.93947754 224.92011719 -163.0793457 224.21289062 C-163.81240753 220.53327573 -164.59894051 216.87707837 -165.48046875 213.23046875 C-166.3414174 209.4807172 -166.45634971 206.06992122 -166.29296875 202.23046875 C-166.95296875 202.23046875 -167.61296875 202.23046875 -168.29296875 202.23046875 C-169.04929219 196.77675729 -169.4840927 191.44822422 -169.56640625 185.9453125 C-169.5847905 184.78886482 -169.5847905 184.78886482 -169.60354614 183.60905457 C-169.63540216 181.12866037 -169.65430935 178.64852756 -169.66796875 176.16796875 C-169.67352783 175.32530457 -169.67908691 174.48264038 -169.68481445 173.61444092 C-169.7316354 159.55377722 -168.30296017 146.77851119 -164.29296875 133.23046875 C-163.63296875 133.23046875 -162.97296875 133.23046875 -162.29296875 133.23046875 C-162.16921875 132.39 -162.04546875 131.54953125 -161.91796875 130.68359375 C-161.25661122 127.02959342 -160.32494726 123.54686507 -159.29296875 119.98046875 C-158.76703125 118.14742187 -158.76703125 118.14742187 -158.23046875 116.27734375 C-157.29296875 113.23046875 -157.29296875 113.23046875 -156.29296875 111.23046875 C-155.63296875 111.23046875 -154.97296875 111.23046875 -154.29296875 111.23046875 C-154.18339844 110.67359375 -154.07382812 110.11671875 -153.9609375 109.54296875 C-152.85090984 104.20039659 -151.52172426 99.22288109 -149.29296875 94.23046875 C-147.80796875 93.73546875 -147.80796875 93.73546875 -146.29296875 93.23046875 C-145.25356855 91.25065885 -144.26409125 89.24464875 -143.29296875 87.23046875 C-141.76945049 84.88321096 -140.19354212 82.57980204 -138.59765625 80.28125 C-137.13817025 78.17009998 -137.13817025 78.17009998 -136.29296875 75.23046875 C-135.63296875 75.23046875 -134.97296875 75.23046875 -134.29296875 75.23046875 C-134.16921875 74.42609375 -134.04546875 73.62171875 -133.91796875 72.79296875 C-133.71171875 71.94734375 -133.50546875 71.10171875 -133.29296875 70.23046875 C-132.63296875 69.90046875 -131.97296875 69.57046875 -131.29296875 69.23046875 C-130.81859375 68.38484375 -130.34421875 67.53921875 -129.85546875 66.66796875 C-129.33984375 65.86359375 -128.82421875 65.05921875 -128.29296875 64.23046875 C-127.30296875 64.23046875 -126.31296875 64.23046875 -125.29296875 64.23046875 C-125.02484375 63.26109375 -124.75671875 62.29171875 -124.48046875 61.29296875 C-123.89265625 59.77703125 -123.89265625 59.77703125 -123.29296875 58.23046875 C-122.30296875 57.90046875 -121.31296875 57.57046875 -120.29296875 57.23046875 C-119.08414779 55.23030409 -119.08414779 55.23030409 -118.29296875 53.23046875 C-117.63296875 53.23046875 -116.97296875 53.23046875 -116.29296875 53.23046875 C-116.29296875 52.24046875 -116.29296875 51.25046875 -116.29296875 50.23046875 C-112.95963542 47.23046875 -112.95963542 47.23046875 -110.29296875 47.23046875 C-110.29296875 46.57046875 -110.29296875 45.91046875 -110.29296875 45.23046875 C-105.8299046 41.04987702 -100.98817255 36.98467897 -95.60546875 34.04296875 C-92.8837006 32.55369938 -90.71415591 31.06603134 -88.29296875 29.16796875 C-84.7552304 26.44452608 -81.43310988 24.87090203 -77.29296875 23.23046875 C-75.62280359 22.23632282 -73.95576202 21.23689625 -72.29296875 20.23046875 C-69.64955499 19.09757714 -67.02189695 18.14011148 -64.29296875 17.23046875 C-64.29296875 16.57046875 -64.29296875 15.91046875 -64.29296875 15.23046875 C-63.59212158 14.99859863 -62.89127441 14.76672852 -62.16918945 14.52783203 C-58.98075345 13.47196766 -55.79310589 12.41374231 -52.60546875 11.35546875 C-51.50267578 10.99066406 -50.39988281 10.62585938 -49.26367188 10.25 C-47.66362305 9.71826172 -47.66362305 9.71826172 -46.03125 9.17578125 C-45.05196533 8.85109863 -44.07268066 8.52641602 -43.0637207 8.19189453 C-41.26862948 7.56901417 -39.49061858 6.89348475 -37.73876953 6.15771484 C-35.25073959 5.21445893 -33.05665908 4.78035652 -30.421875 4.44921875 C-29.51759766 4.32933594 -28.61332031 4.20945312 -27.68164062 4.0859375 C-26.74900391 3.96863281 -25.81636719 3.85132813 -24.85546875 3.73046875 C-23.00190433 3.49636138 -21.14900558 3.25691184 -19.296875 3.01171875 C-18.48033447 2.90923828 -17.66379395 2.80675781 -16.82250977 2.70117188 C-14.20688345 2.28848328 -14.20688345 2.28848328 -11.49853516 1.19604492 C-7.62073013 0.02797799 -4.00786458 -0.03871533 0 0 Z " fill="#FCFCFD" transform="translate(631.29296875,327.76953125)"/>
<path d="M0 0 C3.17462913 1.39124222 5.18902753 2.99273244 7.5390625 5.52734375 C8.1976123 6.23246094 8.85616211 6.93757812 9.53466797 7.6640625 C10.22447754 8.41429687 10.91428711 9.16453125 11.625 9.9375 C12.33414551 10.69933594 13.04329102 11.46117187 13.77392578 12.24609375 C18.63285194 17.47725408 23.43734695 22.75660742 28.1796875 28.09375 C29.86445904 30.07306923 29.86445904 30.07306923 32 31 C32.33 31.99 32.66 32.98 33 34 C34.8644281 35.81346266 34.8644281 35.81346266 37.0625 37.5625 C38.41159519 38.66501188 39.73388897 39.80310688 41 41 C41 41.66 41 42.32 41 43 C41.639375 43.226875 42.27875 43.45375 42.9375 43.6875 C45 45 45 45 45.62890625 47.58203125 C45.81259766 48.77892578 45.81259766 48.77892578 46 50 C41.94649883 53.73319726 37.90544114 57.16034097 33.25 60.125 C29.73865468 62.38186468 27.54287167 64.66796126 25 68 C20.8333352 70.99536225 16.46736181 73.42094723 11.875 75.6875 C11.26785156 75.99494141 10.66070313 76.30238281 10.03515625 76.61914062 C7.06874225 78.09588485 4.26945807 79.39002648 1 80 C1 80.66 1 81.32 1 82 C-7.27286688 85.55204903 -15.61679928 88.746208 -24.125 91.6875 C-25.22714844 92.07744141 -26.32929687 92.46738281 -27.46484375 92.86914062 C-33.32827559 94.90360541 -39.04302206 96.58255969 -45.16748047 97.61645508 C-47.01005922 97.82764194 -47.01005922 97.82764194 -48 99 C-65.74456703 102.14083422 -84.05761869 101.19559829 -102 101 C-102 100.34 -102 99.68 -102 99 C-102.66386719 99.02320313 -103.32773437 99.04640625 -104.01171875 99.0703125 C-108.9457337 99.17115368 -112.44362706 98.98611128 -117 97 C-119.03585445 96.79975202 -121.07195577 96.60161368 -123.109375 96.41796875 C-129.5068742 95.49292495 -135.75658329 93.64703631 -142 92 C-142 91.34 -142 90.68 -142 90 C-146.70973649 88.23384882 -151.03083364 87.51405169 -156 87 C-156 86.34 -156 85.68 -156 85 C-156.721875 84.9175 -157.44375 84.835 -158.1875 84.75 C-161.57776715 83.84592876 -163.31180664 82.21775952 -166 80 C-166.9075 79.67 -167.815 79.34 -168.75 79 C-169.4925 78.67 -170.235 78.34 -171 78 C-171.640625 75.9375 -171.640625 75.9375 -172 74 C-170.42173185 72.53618641 -168.83717771 71.07914837 -167.25 69.625 C-166.36828125 68.81289063 -165.4865625 68.00078125 -164.578125 67.1640625 C-162.40197479 65.3374152 -160.59179881 64.10212006 -158 63 C-158 62.34 -158 61.68 -158 61 C-154.53846154 58 -154.53846154 58 -152 58 C-151.74992188 57.42121094 -151.49984375 56.84242188 -151.2421875 56.24609375 C-149.83480249 53.70129381 -148.22717069 52.06551169 -146.125 50.0625 C-141.34696181 45.38814438 -137.85534538 41.08312711 -135 35 C-134 33 -133 31 -132 29 C-131.34 29 -130.68 29 -130 29 C-130 27.68 -130 26.36 -130 25 C-128.02 25 -126.04 25 -124 25 C-124 25.66 -124 26.32 -124 27 C-122.7625 26.9071875 -122.7625 26.9071875 -121.5 26.8125 C-117.11806304 27.04724662 -114.04504918 28.32618654 -110 30 C-110 30.66 -110 31.32 -110 32 C-100.90913807 32.95076508 -91.87640082 33.21692852 -82.74536133 33.24023438 C-80.43730418 33.25000083 -78.13011772 33.28117058 -75.82226562 33.3125 C-66.83824978 33.37662075 -58.05811376 33.17036329 -49.91186523 28.90722656 C-47.24655569 27.64247235 -44.90635838 27.8678928 -42 28 C-42 27.34 -42 26.68 -42 26 C-40.73160474 25.49384702 -39.46016898 24.99530901 -38.1875 24.5 C-37.12595703 24.08234375 -37.12595703 24.08234375 -36.04296875 23.65625 C-34 23 -34 23 -31 23 C-31 22.34 -31 21.68 -31 21 C-30.33613281 20.76925781 -29.67226563 20.53851562 -28.98828125 20.30078125 C-23.44993377 18.25523101 -20.06249017 16.37498941 -16 12 C-14.56290151 10.98992506 -13.10201572 10.0132513 -11.625 9.0625 C-7.41464194 6.34727747 -3.73384123 3.33662408 0 0 Z " fill="#FAFBFD" transform="translate(727,587)"/>
<path d="M0 0 C3.60022219 0.00534338 7.20031879 0.00003789 10.80053711 -0.00634766 C46.69589442 -0.02058509 46.69589442 -0.02058509 51.80639648 3.13037109 C49.76481449 3.15829547 47.72310904 3.17716561 45.68139648 3.19287109 C44.54444336 3.20447266 43.40749023 3.21607422 42.23608398 3.22802734 C38.60125493 3.19959607 35.00742458 2.92707105 31.38452148 2.63818359 C23.14438836 2.02266746 14.93993652 1.93381065 6.68139648 1.94287109 C5.91393097 1.94247833 5.14646545 1.94208557 4.35574341 1.94168091 C-6.88067749 1.94854512 -17.86422352 2.51559396 -29.02124023 3.89550781 C-32.7779927 4.30166604 -36.54509199 4.45864486 -40.31860352 4.63037109 C-52.01025 5.18736232 -63.58690688 6.66975309 -75.19360352 8.13037109 C-70.81799063 5.86712305 -67.031178 4.92407392 -62.13500977 4.41162109 C-60.94456055 4.28400391 -59.75411133 4.15638672 -58.52758789 4.02490234 C-57.28299805 3.89470703 -56.0384082 3.76451172 -54.75610352 3.63037109 C-52.29880233 3.37251403 -49.84175721 3.11220167 -47.38500977 2.84912109 C-46.29389893 2.73503906 -45.20278809 2.62095703 -44.07861328 2.50341797 C-41.31658043 2.2031797 -41.31658043 2.2031797 -39.1550293 1.62011719 C-26.82952985 -1.45742226 -12.5917103 -0.02221514 0 0 Z " fill="#B6ACF6" transform="translate(506.193603515625,69.86962890625)"/>
<path d="M0 0 C3.25374871 0.02376072 6.50668347 0.02052001 9.76049805 0.01391602 C11.85490392 0.01948936 13.94930639 0.02659707 16.04370117 0.03540039 C17.00327225 0.03448898 17.96284332 0.03357758 18.95149231 0.03263855 C24.17962953 0.08709502 28.95191977 0.5753583 34.02549744 1.8611908 C36.71665002 2.53222747 39.43170365 2.85859762 42.18041992 3.21118164 C48.94405624 4.2161559 55.57388597 5.77757678 61.93041992 8.33618164 C62.42541992 9.32618164 62.42541992 9.32618164 62.93041992 10.33618164 C61.87725586 10.08223633 60.8240918 9.82829102 59.73901367 9.56665039 C41.02114692 5.08493842 23.23198578 2.14214152 3.95166016 2.09594727 C1.50087893 2.08621325 -0.94907146 2.05507741 -3.3996582 2.02368164 C-11.48691016 1.97074456 -18.77735487 2.25417505 -26.58447266 4.67041016 C-30.47460179 5.71259329 -34.06660015 5.53633064 -38.06958008 5.33618164 C-27.50853268 -1.70451663 -12.12940676 -0.09484012 0 0 Z " fill="#A9A6F5" transform="translate(640.069580078125,326.663818359375)"/>
<path d="M0 0 C1.04062277 3.66175869 0.80497133 6.16971366 0.125 9.9375 C-2.26554581 23.25385026 -2.26025427 36.82493851 -2.5625 50.3125 C-2.60580614 52.13216895 -2.64942374 53.95183052 -2.69335938 55.77148438 C-2.79915818 60.18091281 -2.9007613 64.59041925 -3 69 C-3.33 69 -3.66 69 -4 69 C-4.75632344 63.54628854 -5.19112395 58.21775547 -5.2734375 52.71484375 C-5.29182175 51.55839607 -5.29182175 51.55839607 -5.31057739 50.37858582 C-5.34243341 47.89819162 -5.3613406 45.41805881 -5.375 42.9375 C-5.38055908 42.09483582 -5.38611816 41.25217163 -5.3918457 40.38397217 C-5.43866665 26.32330847 -4.00999142 13.54804244 0 0 Z " fill="#AFAFF7" transform="translate(467,461)"/>
<path d="M0 0 C4.05698819 0.11853846 8.11375694 0.24280582 12.17041016 0.37231445 C13.54959378 0.4155455 14.92882685 0.45722866 16.30810547 0.49731445 C18.29406938 0.55530403 20.27985269 0.61937723 22.265625 0.68359375 C23.45961914 0.72025146 24.65361328 0.75690918 25.88378906 0.79467773 C28.44309697 0.96330653 30.55296415 1.31007936 33 2 C49.2454411 3.53098398 65.69458565 3.53592167 82 4 C82 4.33 82 4.66 82 5 C54.34882011 5.14688842 27.47909161 4.44623341 0 1 C0 0.67 0 0.34 0 0 Z " fill="#8D99F2" transform="translate(447,949)"/>
<path d="M0 0 C-0.33 0.66 -0.66 1.32 -1 2 C-2.22976563 2.06058594 -3.45953125 2.12117187 -4.7265625 2.18359375 C-6.35938427 2.26805005 -7.99219627 2.35269547 -9.625 2.4375 C-10.43324219 2.47681641 -11.24148438 2.51613281 -12.07421875 2.55664062 C-12.86699219 2.59853516 -13.65976562 2.64042969 -14.4765625 2.68359375 C-15.19924316 2.72025146 -15.92192383 2.75690918 -16.66650391 2.79467773 C-19.06082443 2.96474399 -19.06082443 2.96474399 -21.62597656 3.50927734 C-26.26146608 4.18346938 -30.82939863 4.16256066 -35.5078125 4.16796875 C-36.51085419 4.17129715 -37.51389587 4.17462555 -38.54733276 4.17805481 C-40.66029402 4.18310236 -42.77326319 4.18546381 -44.88623047 4.18530273 C-48.12090049 4.18749722 -51.35523363 4.20569784 -54.58984375 4.22460938 C-56.64583217 4.22754213 -58.7018222 4.22952771 -60.7578125 4.23046875 C-62.20790207 4.24124702 -62.20790207 4.24124702 -63.68728638 4.25224304 C-65.03921585 4.2476281 -65.03921585 4.2476281 -66.41845703 4.24291992 C-67.20866241 4.24434494 -67.9988678 4.24576996 -68.8130188 4.24723816 C-71.25256901 3.97144708 -72.88435011 3.21584029 -75 2 C-73.68281982 2.00523682 -72.36563965 2.01047363 -71.00854492 2.01586914 C-66.12769244 2.03395149 -61.24684293 2.04544389 -56.3659668 2.05493164 C-54.25235496 2.05996444 -52.13874662 2.0667912 -50.02514648 2.07543945 C-46.98941182 2.08755104 -43.95372314 2.09323881 -40.91796875 2.09765625 C-39.97100632 2.10281754 -39.02404388 2.10797882 -38.04838562 2.11329651 C-37.16769913 2.11337204 -36.28701263 2.11344757 -35.37963867 2.11352539 C-34.60464523 2.115746 -33.82965179 2.11796661 -33.03117371 2.12025452 C-30.79559412 2.07609077 -30.79559412 2.07609077 -28 1 C-26.37176104 0.85239313 -24.73892783 0.75259606 -23.10546875 0.68359375 C-22.14962891 0.64169922 -21.19378906 0.59980469 -20.20898438 0.55664062 C-19.21189453 0.51732422 -18.21480469 0.47800781 -17.1875 0.4375 C-15.70926758 0.37272461 -15.70926758 0.37272461 -14.20117188 0.30664062 C-9.46438723 0.10622596 -4.74218009 -0.05635868 0 0 Z " fill="#C7CFF7" transform="translate(560,951)"/>
<path d="M0 0 C0.66 0.33 1.32 0.66 2 1 C0.4840625 2.2375 0.4840625 2.2375 -1.0625 3.5 C-3.64251467 5.71070839 -5.92992804 7.97132483 -8.125 10.5625 C-13.3613284 16.73775625 -19.24075978 22.31870439 -25 28 C-25.33 27.34 -25.66 26.68 -26 26 C-24.6875 23.375 -24.6875 23.375 -23 21 C-22.34 21 -21.68 21 -21 21 C-20.34 19.68 -19.68 18.36 -19 17 C-18.34 17 -17.68 17 -17 17 C-17 16.01 -17 15.02 -17 14 C-13.66666667 11 -13.66666667 11 -11 11 C-11 10.34 -11 9.68 -11 9 C-9.21895282 7.39821407 -7.37462722 5.86618074 -5.5 4.375 C-4.4790625 3.55773437 -3.458125 2.74046875 -2.40625 1.8984375 C-1.6121875 1.27195312 -0.818125 0.64546875 0 0 Z M-29 28 C-28.01 28.33 -27.02 28.66 -26 29 C-28.475 30.485 -28.475 30.485 -31 32 C-30.34 30.68 -29.68 29.36 -29 28 Z " fill="#CBCAF8" transform="translate(532,364)"/>
<path d="M0 0 C1.16015625 0.00322266 2.3203125 0.00644531 3.515625 0.00976562 C5.32546875 0.02233398 5.32546875 0.02233398 7.171875 0.03515625 C9.00492187 0.04192383 9.00492187 0.04192383 10.875 0.04882812 C13.89067446 0.0606081 16.90624998 0.07705772 19.921875 0.09765625 C19.921875 0.42765625 19.921875 0.75765625 19.921875 1.09765625 C10.2219044 2.14055497 0.54422733 3.13851037 -9.203125 3.59765625 C-20.89483362 4.15681364 -32.47118855 5.63700807 -44.078125 7.09765625 C-39.70251212 4.83440821 -35.91569949 3.89135907 -31.01953125 3.37890625 C-29.82908203 3.25128906 -28.63863281 3.12367187 -27.41210938 2.9921875 C-26.16751953 2.86199219 -24.92292969 2.73179688 -23.640625 2.59765625 C-21.18332381 2.33979919 -18.7262787 2.07948683 -16.26953125 1.81640625 C-15.17842041 1.70232422 -14.08730957 1.58824219 -12.96313477 1.47070312 C-10.20288472 1.1789481 -10.20288472 1.1789481 -8.07104492 0.55883789 C-5.35333906 -0.07006648 -2.78748606 -0.01366415 0 0 Z " fill="#A899F6" transform="translate(475.078125,70.90234375)"/>
<path d="M0 0 C0.33 0 0.66 0 1 0 C1.125 7.75 1.125 7.75 0 10 C-0.26452717 11.60506334 -0.48581242 13.21738408 -0.68359375 14.83203125 C-0.80669922 15.79560547 -0.92980469 16.75917969 -1.05664062 17.75195312 C-1.30905142 19.78030041 -1.55908052 21.8089456 -1.80664062 23.83789062 C-1.93103516 24.80533203 -2.05542969 25.77277344 -2.18359375 26.76953125 C-2.29243896 27.65229736 -2.40128418 28.53506348 -2.51342773 29.44458008 C-3.02889238 32.15173937 -3.89933901 34.47955146 -5 37 C-5.33 37 -5.66 37 -6 37 C-6.48448666 29.08671782 -4.67425109 21.69518763 -3 14 C-2.7101967 12.6394805 -2.42112789 11.27880433 -2.1328125 9.91796875 C-1.42906799 6.61036955 -0.71793606 3.30454257 0 0 Z " fill="#A095F2" transform="translate(79,420)"/>
<path d="M0 0 C1 3 1 3 -0.3125 5.6875 C-0.869375 6.450625 -1.42625 7.21375 -2 8 C-2.66 8 -3.32 8 -4 8 C-4 8.66 -4 9.32 -4 10 C-5.42578125 11.3671875 -5.42578125 11.3671875 -7.3125 12.875 C-9.95128024 15.05439745 -12.11133358 17.11145136 -14 20 C-14.99 19.67 -15.98 19.34 -17 19 C-11.43668753 12.570874 -5.73417866 6.27644505 0 0 Z " fill="#8176F2" transform="translate(194,204)"/>
<path d="M0 0 C0.33 0 0.66 0 1 0 C1.05437005 2.85442753 1.09384974 5.70780076 1.125 8.5625 C1.15013672 9.76229492 1.15013672 9.76229492 1.17578125 10.98632812 C1.2170197 16.03803789 0.58512492 20.15138261 -1 25 C-1.39838846 26.80750322 -1.7763885 28.61974004 -2.125 30.4375 C-2.29257812 31.30246094 -2.46015625 32.16742187 -2.6328125 33.05859375 C-2.75398437 33.69925781 -2.87515625 34.33992187 -3 35 C-3.33 35 -3.66 35 -4 35 C-3.71937541 30.85334305 -3.42348708 26.7079064 -3.125 22.5625 C-3.00705078 20.81549805 -3.00705078 20.81549805 -2.88671875 19.03320312 C-2.40818648 12.49939717 -1.61664588 6.35110882 0 0 Z " fill="#9397F4" transform="translate(532,480)"/>
<path d="M0 0 C0.33 0 0.66 0 1 0 C1.02746229 1.68740514 1.04660111 3.3749463 1.0625 5.0625 C1.07410156 6.00222656 1.08570313 6.94195313 1.09765625 7.91015625 C1 11 1 11 0.5234375 14.3203125 C-0.17706677 19.24475295 -0.34542373 24.15576283 -0.51757812 29.12304688 C-0.7828009 34.7828009 -0.7828009 34.7828009 -3 37 C-2.88916928 32.5203666 -2.75876812 28.04150251 -2.625 23.5625 C-2.57859375 21.67241211 -2.57859375 21.67241211 -2.53125 19.74414062 C-2.31662996 12.89418441 -1.77361794 6.62583289 0 0 Z " fill="#878FF1" transform="translate(952,540)"/>
<path d="M0 0 C5.31761259 -0.2848721 8.5714111 0.18810585 13.59179688 2.16918945 C18.43159702 3.83888125 23.48628719 4.69495279 28.5 5.6875 C30.16289062 6.02491211 30.16289062 6.02491211 31.859375 6.36914062 C34.57179015 6.91863852 37.28526601 7.46209704 40 8 C40 8.33 40 8.66 40 9 C26.40281125 7.61723504 12.91132341 5.66242234 0 1 C0 0.67 0 0.34 0 0 Z " fill="#A3ABF5" transform="translate(391,937)"/>
<path d="M0 0 C0.33 0 0.66 0 1 0 C0.4003591 7.2791851 -1.14844733 14.02358241 -3.0625 21.0625 C-3.34416016 22.11888672 -3.62582031 23.17527344 -3.91601562 24.26367188 C-4.60489729 26.84405915 -5.29965829 29.42270414 -6 32 C-7.18719263 27.63496852 -6.67009018 24.46726786 -6 20 C-5.34 20 -4.68 20 -4 20 C-4.061875 18.2675 -4.061875 18.2675 -4.125 16.5 C-4.14087433 12.05518699 -3.21793105 8.26275869 -2 4 C-1.34 4 -0.68 4 0 4 C0 2.68 0 1.36 0 0 Z " fill="#8995ED" transform="translate(944,601)"/>
<path d="M0 0 C-3.2589055 2.17260367 -6.32149695 3.35021087 -10 4.6875 C-11.2375 5.14511719 -12.475 5.60273438 -13.75 6.07421875 C-17 7 -17 7 -20 6 C-7.67344413 -0.30091938 -7.67344413 -0.30091938 0 0 Z " fill="#8C89F3" transform="translate(587,336)"/>
<path d="M0 0 C0.66 0 1.32 0 2 0 C2 2.125 2 2.125 1 5 C-1.48288412 7.27266281 -4.21965021 9.11204449 -7 11 C-8.33803283 11.99370314 -9.6727757 12.99190604 -11 14 C-9.53417985 10.57719483 -7.61937745 8.43519517 -4.9375 5.875 C-2.08428067 3.22095 -2.08428067 3.22095 0 0 Z " fill="#9196F8" transform="translate(769,383)"/>
<path d="M0 0 C0.60546875 1.85546875 0.60546875 1.85546875 1 4 C-0.6875 6.3125 -0.6875 6.3125 -3 9 C-3.6913329 10.1522215 -4.35745876 11.31987445 -5 12.5 C-6.71135764 15.6035335 -8.70216686 18.29183952 -11 21 C-10.48230385 16.47015865 -8.81799908 14.50345831 -6 11 C-3.90707863 7.38216281 -1.94382295 3.69974301 0 0 Z " fill="#AAADF6" transform="translate(534,549)"/>
<path d="M0 0 C-0.66 0 -1.32 0 -2 0 C-2.33 0.99 -2.66 1.98 -3 3 C-6 4 -6 4 -9 3 C-10.7015625 3.495 -10.7015625 3.495 -12.4375 4 C-15.89723397 4.97115339 -16.78384732 5.01785931 -20 4 C-19.34773438 3.80664062 -18.69546875 3.61328125 -18.0234375 3.4140625 C-17.14945312 3.15367188 -16.27546875 2.89328125 -15.375 2.625 C-14.46234375 2.35429688 -13.5496875 2.08359375 -12.609375 1.8046875 C-10.59393936 1.18316094 -8.60279997 0.48251851 -6.625 -0.25 C-3.89565814 -1.02981196 -2.61577273 -1.00606643 0 0 Z " fill="#AF9FF6" transform="translate(402,85)"/>
<path d="M0 0 C8.13105861 0.49122453 16.01920915 1.35266241 24 3 C24 3.33 24 3.66 24 4 C22.02090602 4.02686553 20.04171029 4.04633375 18.0625 4.0625 C16.96035156 4.07410156 15.85820313 4.08570312 14.72265625 4.09765625 C12 4 12 4 11 3 C9.15108054 2.76636119 7.29511969 2.58696365 5.4375 2.4375 C4.42558594 2.35371094 3.41367187 2.26992187 2.37109375 2.18359375 C1.19740234 2.09271484 1.19740234 2.09271484 0 2 C0 1.34 0 0.68 0 0 Z " fill="#9A8EF5" transform="translate(570,74)"/>
<path d="M0 0 C0 4.35989219 -0.79127495 8.43873014 -3.5 11.9375 C-5 13 -5 13 -7 13 C-7 13.66 -7 14.32 -7 15 C-7.66 14.67 -8.32 14.34 -9 14 C-8.21718695 12.66144944 -7.42348123 11.32926356 -6.625 10 C-6.18414063 9.2575 -5.74328125 8.515 -5.2890625 7.75 C-4.86367188 7.1725 -4.43828125 6.595 -4 6 C-3.34 6 -2.68 6 -2 6 C-1.855625 5.195625 -1.71125 4.39125 -1.5625 3.5625 C-1 1 -1 1 0 0 Z " fill="#8993F4" transform="translate(580,605)"/>
<path d="M0 0 C0 0.66 0 1.32 0 2 C-0.99 2 -1.98 2 -3 2 C-3 2.66 -3 3.32 -3 4 C-6.93281242 7.0900669 -10.02125936 8.52583422 -15 9 C-14.67 8.34 -14.34 7.68 -14 7 C-13.34 7 -12.68 7 -12 7 C-12 6.34 -12 5.68 -12 5 C-9.36 4.34 -6.72 3.68 -4 3 C-4 2.34 -4 1.68 -4 1 C-2 0 -2 0 0 0 Z " fill="#8876F4" transform="translate(296,127)"/>
<path d="M0 0 C1.20911995 3.62735984 0.67930825 4.6393849 -0.6875 8.125 C-1.02136719 9.01445313 -1.35523438 9.90390625 -1.69921875 10.8203125 C-3 13 -3 13 -5.14453125 13.8046875 C-5.75683594 13.86914062 -6.36914062 13.93359375 -7 14 C-4.66666667 9.33333333 -2.33333333 4.66666667 0 0 Z " fill="#8F96F7" transform="translate(515,543)"/>
<path d="M0 0 C0.99 0.33 1.98 0.66 3 1 C2.34 1 1.68 1 1 1 C1 1.66 1 2.32 1 3 C0.34 3 -0.32 3 -1 3 C-1 3.66 -1 4.32 -1 5 C-4.4019487 7.09350689 -7.05272412 7.17942163 -11 7 C-8.64264116 4.27042661 -6.41866474 3.11106604 -3 2 C-2.01 2 -1.02 2 0 2 C0 1.34 0 0.68 0 0 Z " fill="#9C8BF6" transform="translate(323,111)"/>
<path d="M0 0 C0 3.5615162 -0.73209429 4.31978575 -2.875 7.0625 C-3.40867187 7.75472656 -3.94234375 8.44695313 -4.4921875 9.16015625 C-6 11 -6 11 -8 13 C-8.99 12.67 -9.98 12.34 -11 12 C-9.68 11.34 -8.36 10.68 -7 10 C-7 9.34 -7 8.68 -7 8 C-6.34 8 -5.68 8 -5 8 C-4.731875 7.4225 -4.46375 6.845 -4.1875 6.25 C-2.98280141 3.9674132 -1.59201885 2.0262058 0 0 Z " fill="#99A1F8" transform="translate(501,565)"/>
<path d="M0 0 C0.33 0.66 0.66 1.32 1 2 C-0.98 4.64 -2.96 7.28 -5 10 C-5.99 9.67 -6.98 9.34 -8 9 C-6.85459775 7.68712379 -5.70866567 6.37470979 -4.5625 5.0625 C-3.92441406 4.33160156 -3.28632813 3.60070312 -2.62890625 2.84765625 C-1.77458541 1.87860647 -0.91348825 0.91348825 0 0 Z " fill="#8980F2" transform="translate(185,214)"/>
<path d="M0 0 C0.33 0 0.66 0 1 0 C1.5321441 2.08047297 2.05031786 4.16452293 2.5625 6.25 C2.85253906 7.41015625 3.14257812 8.5703125 3.44140625 9.765625 C3.95179964 12.72090983 4.02996165 14.24434101 3 17 C0.70657253 11.10261508 -0.34548714 6.33393082 0 0 Z " fill="#BFBCF0" transform="translate(81,610)"/>
<path d="M0 0 C0 3 0 3 -1.125 5.1875 C-3 7 -3 7 -6.1875 7.25 C-7.115625 7.1675 -8.04375 7.085 -9 7 C-9 6.01 -9 5.02 -9 4 C-7.6078125 3.8453125 -7.6078125 3.8453125 -6.1875 3.6875 C-2.96745642 2.9929808 -1.97420135 2.52259061 0 0 Z " fill="#9AA1F6" transform="translate(489,578)"/>
<path d="M0 0 C0.66 0.33 1.32 0.66 2 1 C-2.18461538 6.78461538 -2.18461538 6.78461538 -6.3125 7.875 C-7.6428125 7.936875 -7.6428125 7.936875 -9 8 C-6.14723863 5.06799526 -3.34920216 2.35684596 0 0 Z " fill="#9386F5" transform="translate(242,161)"/>
<path d="M0 0 C0 0.33 0 0.66 0 1 C-6.11980533 2.40454548 -11.71739294 3.23268915 -18 3 C-18 2.67 -18 2.34 -18 2 C-11.92972642 -0.1583195 -6.40629424 -0.20852314 0 0 Z " fill="#97A3F3" transform="translate(594,946)"/>
<path d="M0 0 C10.74259681 2.70615034 10.74259681 2.70615034 14 7 C9.0276578 5.50829734 4.58154261 3.39542583 0 1 C0 0.67 0 0.34 0 0 Z " fill="#C0C2F8" transform="translate(693,405)"/>
<path d="M0 0 C0.66 0.33 1.32 0.66 2 1 C-1.32307692 6.78461538 -1.32307692 6.78461538 -4.75 7.875 C-5.4925 7.91625 -6.235 7.9575 -7 8 C-6.02133662 6.85373678 -5.04205413 5.70800212 -4.0625 4.5625 C-3.51722656 3.92441406 -2.97195313 3.28632813 -2.41015625 2.62890625 C-1.63204305 1.73008851 -0.84063472 0.84063472 0 0 Z " fill="#959AF7" transform="translate(566,423)"/>
<path d="M0 0 C0 0.99 0 1.98 0 3 C-2.30368736 4.06652192 -4.64018187 5.06421005 -7 6 C-7.66 5.67 -8.32 5.34 -9 5 C-7.87926138 4.16094435 -6.75325453 3.32892169 -5.625 2.5 C-4.99851562 2.0359375 -4.37203125 1.571875 -3.7265625 1.09375 C-2 0 -2 0 0 0 Z " fill="#9788F4" transform="translate(272,141)"/>
<path d="M0 0 C0.66 0.33 1.32 0.66 2 1 C0.58159741 3.83680518 -1.18641385 4.62592304 -4 6 C-6.16796875 5.58203125 -6.16796875 5.58203125 -8 5 C-6.71475739 4.13619741 -5.42157581 3.28419631 -4.125 2.4375 C-3.04605469 1.72400391 -3.04605469 1.72400391 -1.9453125 0.99609375 C-1.30335938 0.66738281 -0.66140625 0.33867188 0 0 Z " fill="#95A0F8" transform="translate(526,658)"/>
<path d="M0 0 C0.66 0.33 1.32 0.66 2 1 C0.41641358 4.16717283 -0.45263699 5.73268318 -3.6875 7.3125 C-4.450625 7.539375 -5.21375 7.76625 -6 8 C-6 7.34 -6 6.68 -6 6 C-4.34997172 4.64613064 -2.6825613 3.31321858 -1 2 C-0.67 1.34 -0.34 0.68 0 0 Z " fill="#8B98F4" transform="translate(557,633)"/>
<path d="M0 0 C1.98 0 3.96 0 6 0 C6.33 0.66 6.66 1.32 7 2 C4.36 2.33 1.72 2.66 -1 3 C-0.67 2.01 -0.34 1.02 0 0 Z " fill="#8287F4" transform="translate(685,403)"/>
<path d="M0 0 C1.32 0 2.64 0 4 0 C4 0.66 4 1.32 4 2 C5.32 2 6.64 2 8 2 C8.66 3.32 9.32 4.64 10 6 C6.00499382 4.6302836 3.19990508 2.74277578 0 0 Z " fill="#9596F2" transform="translate(736,351)"/>
<path d="M0 0 C0 0.66 0 1.32 0 2 C-5.19230769 6.73076923 -5.19230769 6.73076923 -9 8 C-9 6 -9 6 -7.5390625 4.4921875 C-6.59160156 3.69167969 -6.59160156 3.69167969 -5.625 2.875 C-4.99851563 2.33617187 -4.37203125 1.79734375 -3.7265625 1.2421875 C-2 0 -2 0 0 0 Z " fill="#9489F3" transform="translate(222,179)"/>
<path d="M0 0 C0.66 0.33 1.32 0.66 2 1 C-0.25 3.0625 -0.25 3.0625 -3 5 C-5.3125 4.75 -5.3125 4.75 -7 4 C-1.7265625 0.77734375 -1.7265625 0.77734375 0 0 Z " fill="#9687F4" transform="translate(279,136)"/>
<path d="M0 0 C1.32 0.33 2.64 0.66 4 1 C1.69 2.65 -0.62 4.3 -3 6 C-2 2 -2 2 0 0 Z " fill="#8583F2" transform="translate(537,358)"/>
<path d="M0 0 C0.99 0.495 0.99 0.495 2 1 C2 1.66 2 2.32 2 3 C2.66 3 3.32 3 4 3 C4.33 5.31 4.66 7.62 5 10 C3 9 3 9 2.1484375 6.93359375 C1.89320312 6.10988281 1.63796875 5.28617188 1.375 4.4375 C1.11460938 3.61121094 0.85421875 2.78492188 0.5859375 1.93359375 C0.39257812 1.29550781 0.19921875 0.65742187 0 0 Z " fill="#A8A5F0" transform="translate(103,681)"/>
<path d="M0 0 C1.09658936 3.28976808 0.79953138 4.71303767 0 8 C-1.32 8.33 -2.64 8.66 -4 9 C-2.80100302 5.9168649 -1.52299523 2.93720508 0 0 Z " fill="#978EF4" transform="translate(135,279)"/>
<path d="M0 0 C0.66 0.33 1.32 0.66 2 1 C0.68 1.33 -0.64 1.66 -2 2 C-2 2.66 -2 3.32 -2 4 C-3.98 4.99 -3.98 4.99 -6 6 C-6.66 5.34 -7.32 4.68 -8 4 C-6.71349294 3.30289269 -5.42059335 2.61757124 -4.125 1.9375 C-3.40570313 1.55464844 -2.68640625 1.17179687 -1.9453125 0.77734375 C-1.30335938 0.52082031 -0.66140625 0.26429687 0 0 Z " fill="#9888F5" transform="translate(340,104)"/>
<path d="M0 0 C2.1875 0.3125 2.1875 0.3125 4 1 C3.34 1 2.68 1 2 1 C1.67 1.99 1.34 2.98 1 4 C0.01 4.33 -0.98 4.66 -2 5 C-2.33 4.34 -2.66 3.68 -3 3 C-1.75 1.4375 -1.75 1.4375 0 0 Z " fill="#8E7DF3" transform="translate(398,84)"/>
</svg>
