<svg width="34" height="34" viewBox="0 0 34 34" fill="none" xmlns="http://www.w3.org/2000/svg">
    <rect width="33.4286" height="33.4286" rx="16.7143" fill="url(#paint0_linear)"/>
    <path d="M10.7687 14.319C10.6028 13.0083 10.9734 11.7132 11.8116 10.6732C12.6849 9.58901 13.9357 8.95475 15.2448 8.8079V7.66709C15.2448 7.07345 15.7411 6.59229 16.3534 6.59229C16.9656 6.59229 17.4619 7.07345 17.4619 7.66709V9.03247C17.9928 9.20588 18.5028 9.46755 18.9688 9.82061L20.8689 11.2598C21.3515 11.6254 21.4369 12.3002 21.0599 12.7681C20.6828 13.236 19.9864 13.3188 19.5042 12.9536L17.6041 11.5144C16.3518 10.5662 14.5371 10.7822 13.5586 11.996C13.0845 12.5842 12.8755 13.3161 12.9693 14.057C13.0632 14.7978 13.4487 15.4591 14.0553 15.9183L16.763 17.9695C17.2456 18.3351 17.331 19.0104 16.9544 19.4783C16.7356 19.7497 16.4098 19.8911 16.0803 19.8911C15.8418 19.8911 15.6013 19.8169 15.3987 19.6634L12.691 17.6122C11.6171 16.799 10.9347 15.6297 10.7687 14.319Z" fill="white"/>
    <path d="M20.4443 16.0998L17.813 14.0488C17.3441 13.6833 16.6673 13.7661 16.3014 14.2339C15.935 14.7018 16.018 15.377 16.4869 15.7425L19.1179 17.7935C19.7073 18.2528 20.0823 18.9139 20.1735 19.6548C20.2647 20.3956 20.0611 21.1274 19.6009 21.7155C19.049 22.42 18.2243 22.7887 17.391 22.7883C16.7883 22.7883 16.1808 22.5954 15.6701 22.1974L13.8238 20.7584C13.3549 20.3928 12.6782 20.4756 12.3119 20.9435C11.9455 21.4113 12.0289 22.0865 12.4978 22.4521L14.3436 23.8911C14.7961 24.2442 15.292 24.5058 15.8078 24.6792V26.0449C15.8078 26.6385 16.29 27.1196 16.8849 27.1196C17.4799 27.1196 17.9621 26.6385 17.9621 26.0449V24.9042C19.2345 24.7577 20.4494 24.1235 21.2983 23.0394C22.9802 20.8915 22.5974 17.7787 20.4447 16.1006L20.4443 16.0998Z" fill="white"/>
    <defs>
        <linearGradient id="paint0_linear" x1="9.90476" y1="0" x2="24.2771" y2="32.1674" gradientUnits="userSpaceOnUse">
            <stop stop-color="#6D55FF"/>
            <stop offset="1" stop-color="#3E68FF"/>
        </linearGradient>
    </defs>
</svg>
